<svg width="1923" height="1803" viewBox="0 0 1923 1803" fill="none" xmlns="http://www.w3.org/2000/svg">
<path d="M637.85 1119.12C588.488 1066.85 555.516 1001.27 543.006 930.472C530.495 859.676 538.994 786.766 567.453 720.745C595.912 654.725 643.085 598.486 703.145 558.972C763.206 519.459 833.525 498.402 905.418 498.402C977.311 498.402 1047.63 519.459 1107.69 558.972C1167.75 598.486 1214.92 654.725 1243.38 720.745C1271.84 786.766 1280.34 859.676 1267.83 930.472C1255.32 1001.27 1222.35 1066.85 1172.98 1119.12L1080.91 1404.5H729.792L637.85 1119.12ZM1098.37 1073.83L1105.59 1066.61C1145.19 1027.02 1172.15 976.576 1183.08 921.657C1194.01 866.738 1188.41 809.813 1166.98 758.079C1145.55 706.345 1109.27 662.127 1062.71 631.017C1016.15 599.907 961.413 583.302 905.418 583.302C849.422 583.302 794.685 599.907 748.127 631.017C701.569 662.127 665.283 706.345 643.856 758.079C622.43 809.813 616.826 866.738 627.753 921.657C638.681 976.576 665.648 1027.02 705.246 1066.61L712.496 1073.83L791.758 1319.55H1019.08L1098.37 1073.83Z" fill="#FCFAED"/>
<path d="M1093.98 1452.16H716.85V1537.08H1093.98V1452.16Z" fill="#FCFAED"/>
<path d="M1093.98 1584.78H716.85V1669.3H1093.98V1584.78Z" fill="#FCFAED"/>
<path d="M989.518 1717.39H817.241V1802.31H989.518V1717.39Z" fill="#FCFAED"/>
<path d="M85.3543 819.955H0.435059L0.435059 989.013H85.3543V819.955Z" fill="#FCFAED"/>
<path d="M185.85 514.336L107.395 481.839L42.6992 638.028L121.154 670.526L185.85 514.336Z" fill="#FCFAED"/>
<path d="M305.291 215.247L185.749 334.789L245.796 394.836L365.338 275.294L305.291 215.247Z" fill="#FCFAED"/>
<path d="M598.777 49.439L442.587 114.135L475.085 192.59L631.274 127.894L598.777 49.439Z" fill="#FCFAED"/>
<path d="M195.502 1452.2L315.044 1571.74L375.091 1511.7L255.549 1392.15L195.502 1452.2Z" fill="#FCFAED"/>
<path d="M631.274 1674.67L475.084 1609.98L442.587 1688.43L598.777 1753.13L631.274 1674.67Z" fill="#FCFAED"/>
<path d="M185.851 1294.75L121.155 1138.57L42.7001 1171.06L107.396 1327.25L185.851 1294.75Z" fill="#FCFAED"/>
<path d="M988.776 0.672852L819.718 0.672852V85.5921H988.776V0.672852Z" fill="#FCFAED"/>
<path d="M1513.73 215.247L1453.69 275.294L1573.23 394.836L1633.28 334.789L1513.73 215.247Z" fill="#FCFAED"/>
<path d="M1704.45 481.84L1626 514.337L1690.69 670.526L1769.15 638.029L1704.45 481.84Z" fill="#FCFAED"/>
<path d="M1209.84 42.9374L1177.34 121.393L1333.53 186.088L1366.03 107.633L1209.84 42.9374Z" fill="#FCFAED"/>
<path d="M1663.29 745.18L1603.24 805.227L1862.37 1064.36L1922.42 1004.31L1663.29 745.18Z" fill="#FCFAED"/>
<path d="M1603.24 1004.31L1663.28 1064.36L1922.42 805.227L1862.37 745.18L1603.24 1004.31Z" fill="#FCFAED"/>
</svg>
