<svg width="2900" height="2900" viewBox="0 0 2900 2900" fill="none" xmlns="http://www.w3.org/2000/svg">
<circle cx="1450" cy="1450" r="1450" fill="#9B3354"/>
<path d="M1174.85 1619.12C1125.49 1566.85 1092.52 1501.27 1080.01 1430.47C1067.5 1359.68 1075.99 1286.77 1104.45 1220.75C1132.91 1154.73 1180.08 1098.49 1240.15 1058.97C1300.21 1019.46 1370.52 998.402 1442.42 998.402C1514.31 998.402 1584.63 1019.46 1644.69 1058.97C1704.75 1098.49 1751.92 1154.73 1780.38 1220.75C1808.84 1286.77 1817.34 1359.68 1804.83 1430.47C1792.32 1501.27 1759.35 1566.85 1709.98 1619.12L1617.91 1904.5H1266.79L1174.85 1619.12ZM1635.37 1573.83L1642.59 1566.61C1682.19 1527.02 1709.15 1476.58 1720.08 1421.66C1731.01 1366.74 1725.41 1309.81 1703.98 1258.08C1682.55 1206.35 1646.27 1162.13 1599.71 1131.02C1553.15 1099.91 1498.41 1083.3 1442.42 1083.3C1386.42 1083.3 1331.68 1099.91 1285.13 1131.02C1238.57 1162.13 1202.28 1206.35 1180.86 1258.08C1159.43 1309.81 1153.83 1366.74 1164.75 1421.66C1175.68 1476.58 1202.65 1527.02 1242.25 1566.61L1249.5 1573.83L1328.76 1819.55H1556.08L1635.37 1573.83Z" fill="#FCFAED"/>
<path d="M1630.98 1952.16H1253.85V2037.08H1630.98V1952.16Z" fill="#FCFAED"/>
<path d="M1630.98 2084.78H1253.85V2169.3H1630.98V2084.78Z" fill="#FCFAED"/>
<path d="M1526.52 2217.39H1354.24V2302.31H1526.52V2217.39Z" fill="#FCFAED"/>
<path d="M622.354 1319.96H537.435V1489.01H622.354V1319.96Z" fill="#FCFAED"/>
<path d="M722.85 1014.34L644.395 981.839L579.699 1138.03L658.154 1170.53L722.85 1014.34Z" fill="#FCFAED"/>
<path d="M842.291 715.247L722.749 834.789L782.796 894.836L902.338 775.294L842.291 715.247Z" fill="#FCFAED"/>
<path d="M1135.78 549.439L979.587 614.135L1012.08 692.59L1168.27 627.894L1135.78 549.439Z" fill="#FCFAED"/>
<path d="M732.502 1952.2L852.044 2071.74L912.091 2011.7L792.549 1892.15L732.502 1952.2Z" fill="#FCFAED"/>
<path d="M1168.27 2174.67L1012.08 2109.98L979.587 2188.43L1135.78 2253.13L1168.27 2174.67Z" fill="#FCFAED"/>
<path d="M722.851 1794.75L658.155 1638.57L579.7 1671.06L644.396 1827.25L722.851 1794.75Z" fill="#FCFAED"/>
<path d="M1525.78 500.673H1356.72V585.592H1525.78V500.673Z" fill="#FCFAED"/>
<path d="M2050.73 715.247L1990.69 775.294L2110.23 894.836L2170.28 834.789L2050.73 715.247Z" fill="#FCFAED"/>
<path d="M2241.45 981.84L2163 1014.34L2227.69 1170.53L2306.15 1138.03L2241.45 981.84Z" fill="#FCFAED"/>
<path d="M1746.84 542.937L1714.34 621.393L1870.53 686.088L1903.03 607.633L1746.84 542.937Z" fill="#FCFAED"/>
<path d="M2200.29 1245.18L2140.24 1305.23L2399.37 1564.36L2459.42 1504.31L2200.29 1245.18Z" fill="#FCFAED"/>
<path d="M2140.24 1504.31L2200.28 1564.36L2459.42 1305.23L2399.37 1245.18L2140.24 1504.31Z" fill="#FCFAED"/>
</svg>
