<?xml version="1.0" standalone="no"?>
<!DOCTYPE svg PUBLIC "-//W3C//DTD SVG 20010904//EN"
 "http://www.w3.org/TR/2001/REC-SVG-20010904/DTD/svg10.dtd">
<svg version="1.0" xmlns="http://www.w3.org/2000/svg"
 width="679.000000pt" height="679.000000pt" viewBox="0 0 679.000000 679.000000"
 preserveAspectRatio="xMidYMid meet">
<metadata>
Created by potrace 1.11, written by Peter Selinger 2001-2013
</metadata>
<g transform="translate(0.000000,679.000000) scale(0.100000,-0.100000)"
fill="#000000" stroke="none">
<path d="M3180 6784 c-19 -2 -84 -9 -144 -14 -486 -47 -998 -223 -1426 -489
-895 -556 -1466 -1462 -1592 -2526 -17 -143 -17 -577 0 -720 94 -793 428
-1490 978 -2039 549 -550 1246 -884 2039 -978 143 -17 577 -17 720 0 793 94
1490 428 2039 978 550 549 884 1246 978 2039 17 143 17 577 0 720 -94 793
-428 1490 -978 2039 -546 547 -1242 882 -2029 976 -91 11 -521 22 -585 14z
m617 -856 c46 -46 83 -87 83 -93 0 -6 -178 -188 -395 -405 l-396 -394 -92 92
-92 92 395 395 c217 217 399 395 405 395 5 0 47 -37 92 -82z m-1600 -675 c-4
-157 -7 -409 -7 -560 l0 -273 -130 0 -130 0 0 560 0 560 137 0 136 0 -6 -287z
m2725 -153 l368 0 0 -130 0 -130 -565 0 -565 0 0 137 0 136 197 -6 c108 -4
362 -7 565 -7z m-1422 -330 c382 -50 711 -286 881 -635 71 -145 100 -266 106
-445 10 -291 -65 -524 -243 -749 l-62 -78 -140 -434 -140 -434 -539 -3 -540
-2 -139 432 c-76 237 -148 444 -159 459 -11 15 -44 58 -73 96 -103 134 -186
339 -211 517 -46 331 63 674 294 924 242 261 615 397 965 352z m-1592 -1517
l-93 -93 -400 400 -400 401 95 89 95 89 397 -397 398 -397 -92 -92z m3459 476
l392 -395 -92 -92 -92 -92 -280 283 c-154 155 -332 335 -395 399 l-115 118 90
90 c49 50 92 89 95 88 3 -2 181 -181 397 -399z m-1427 -2014 l0 -135 -580 0
-580 0 0 135 0 135 580 0 580 0 0 -135z m0 -405 l0 -130 -580 0 -580 0 0 130
0 130 580 0 580 0 0 -130z m-320 -410 l0 -130 -265 0 -265 0 0 130 0 130 265
0 265 0 0 -130z"/>
</g>
</svg>
